name analog
datacolumns 19
datarows 58
range 0.29 0.3185
endheader
time	ground_force_vx	ground_force_vy	ground_force_vz	ground_force_px	ground_force_py	ground_force_pz	l_ground_force_vx	l_ground_force_vy	l_ground_force_vz	l_ground_force_px	l_ground_force_py	l_ground_force_pz	ground_torque_x	ground_torque_y	ground_torque_z	l_ground_torque_x	l_ground_torque_y	l_ground_torque_z
0.29	-0.0	-0.0	-0.0	-2.4157302379608154	-1.0927274227142334	-623.1929931640625	-0.0	-0.0	-0.0	-0.0	-0.0	-0.0	-0.0	-0.0	-0.0	-0.0	-0.0	-0.0
0.2905	-0.0	-0.0	-0.0	-3.114657402038574	-1.4299381971359253	-618.9555053710938	-0.0	-0.0	-0.0	-0.0	-0.0	-0.0	-0.0	-0.0	-0.0	-0.0	-0.0	-0.0
0.291	-0.0	-0.0	-0.0	-3.56842041015625	-1.3917690515518188	-616.222900390625	-0.0	-0.0	-0.0	-0.0	-0.0	-0.0	-0.0	-0.0	-0.0	-0.0	-0.0	-0.0
0.2915	-0.0	-0.0	-0.0	-3.3093690872192383	-2.1157755851745605	-614.4235229492188	-0.0	-0.0	-0.0	-0.0	-0.0	-0.0	-0.0	-0.0	-0.0	-0.0	-0.0	-0.0
0.292	-0.0	-0.0	-0.0	-3.662252902984619	-1.1352581977844238	-612.0791015625	-0.0	-0.0	-0.0	-0.0	-0.0	-0.0	-0.0	-0.0	-0.0	-0.0	-0.0	-0.0
0.2925	-0.0	-0.0	-0.0	-3.563610792160034	-1.8765437602996824	-609.161376953125	-0.0	-0.0	-0.0	-0.0	-0.0	-0.0	-0.0	-0.0	-0.0	-0.0	-0.0	-0.0
0.293	-0.0	-0.0	-0.0	-3.12744665145874	-2.6503608226776123	-608.5089111328125	-0.0	-0.0	-0.0	-0.0	-0.0	-0.0	-0.0	-0.0	-0.0	-0.0	-0.0	-0.0
0.2935	-0.0	-0.0	-0.0	-3.621107816696167	-2.6556668281555176	-603.699462890625	-0.0	-0.0	-0.0	-0.0	-0.0	-0.0	-0.0	-0.0	-0.0	-0.0	-0.0	-0.0
0.294	-0.0	-0.0	-0.0	-4.371315002441406	-2.9705512523651123	-604.5502319335938	-0.0	-0.0	-0.0	-0.0	-0.0	-0.0	-0.0	-0.0	-0.0	-0.0	-0.0	-0.0
0.2945	-0.0	-0.0	-0.0	-3.669592142105103	-3.743476867675781	-602.1951904296875	-0.0	-0.0	-0.0	-0.0	-0.0	-0.0	-0.0	-0.0	-0.0	-0.0	-0.0	-0.0
0.295	-0.0	-0.0	-0.0	-2.432525157928467	-4.254439353942871	-603.7245483398438	-0.0	-0.0	-0.0	-0.0	-0.0	-0.0	-0.0	-0.0	-0.0	-0.0	-0.0	-0.0
0.2955	-0.0	-0.0	-0.0	-1.6647670269012451	-4.765307426452637	-605.37548828125	-0.0	-0.0	-0.0	-0.0	-0.0	-0.0	-0.0	-0.0	-0.0	-0.0	-0.0	-0.0
0.296	-0.0	-0.0	-0.0	-0.3741376399993896	-5.323873996734619	-608.012451171875	-0.0	-0.0	-0.0	-0.0	-0.0	-0.0	-0.0	-0.0	-0.0	-0.0	-0.0	-0.0
0.2965	-0.0	-0.0	-0.0	1.0224885940551758	-4.86103630065918	-611.3544921875	-0.0	-0.0	-0.0	-0.0	-0.0	-0.0	-0.0	-0.0	-0.0	-0.0	-0.0	-0.0
0.297	-0.0	-0.0	-0.0	2.442587375640869	-4.731039524078369	-612.7672119140625	-0.0	-0.0	-0.0	-0.0	-0.0	-0.0	-0.0	-0.0	-0.0	-0.0	-0.0	-0.0
0.2975	-0.0	-0.0	-0.0	3.78772497177124	-5.340387344360352	-616.9097290039062	-0.0	-0.0	-0.0	-0.0	-0.0	-0.0	-0.0	-0.0	-0.0	-0.0	-0.0	-0.0
0.298	-0.0	-0.0	-0.0	4.629997253417969	-5.793476104736328	-618.771240234375	-0.0	-0.0	-0.0	-0.0	-0.0	-0.0	-0.0	-0.0	-0.0	-0.0	-0.0	-0.0
0.2985	-0.0	-0.0	-0.0	5.644555568695068	-6.214856624603272	-623.1055908203125	-0.0	-0.0	-0.0	-0.0	-0.0	-0.0	-0.0	-0.0	-0.0	-0.0	-0.0	-0.0
0.299	-0.0	-0.0	-0.0	6.066314697265625	-6.239128112792969	-625.7384033203125	-0.0	-0.0	-0.0	-0.0	-0.0	-0.0	-0.0	-0.0	-0.0	-0.0	-0.0	-0.0
0.2995	-0.0	-0.0	-0.0	6.982821941375732	-6.449368953704834	-629.4299926757812	-0.0	-0.0	-0.0	-0.0	-0.0	-0.0	-0.0	-0.0	-0.0	-0.0	-0.0	-0.0
0.3	-0.0	-0.0	-0.0	7.016119480133057	-6.838577747344971	-629.7821655273438	-0.0	-0.0	-0.0	-0.0	-0.0	-0.0	-0.0	-0.0	-0.0	-0.0	-0.0	-0.0
0.3005	-0.0	-0.0	-0.0	6.813448429107666	-6.167817115783691	-631.0001220703125	-0.0	-0.0	-0.0	-0.0	-0.0	-0.0	-0.0	-0.0	-0.0	-0.0	-0.0	-0.0
0.301	-0.0	-0.0	-0.0	5.807870388031006	-5.858029365539551	-632.7036743164062	-0.0	-0.0	-0.0	-0.0	-0.0	-0.0	-0.0	-0.0	-0.0	-0.0	-0.0	-0.0
0.3015	-0.0	-0.0	-0.0	5.124856472015381	-5.931915283203125	-633.5071411132812	-0.0	-0.0	-0.0	-0.0	-0.0	-0.0	-0.0	-0.0	-0.0	-0.0	-0.0	-0.0
0.302	-0.0	-0.0	-0.0	4.297145366668701	-5.541111946105957	-636.0387573242188	-0.0	-0.0	-0.0	-0.0	-0.0	-0.0	-0.0	-0.0	-0.0	-0.0	-0.0	-0.0
0.3025	-0.0	-0.0	-0.0	4.1580729484558105	-5.803481578826904	-637.1951293945312	-0.0	-0.0	-0.0	-0.0	-0.0	-0.0	-0.0	-0.0	-0.0	-0.0	-0.0	-0.0
0.303	-0.0	-0.0	-0.0	3.3213090896606445	-6.114901542663574	-637.5881958007812	-0.0	-0.0	-0.0	-0.0	-0.0	-0.0	-0.0	-0.0	-0.0	-0.0	-0.0	-0.0
0.3035	-0.0	-0.0	-0.0	2.9150140285491943	-5.853699684143066	-638.632080078125	-0.0	-0.0	-0.0	-0.0	-0.0	-0.0	-0.0	-0.0	-0.0	-0.0	-0.0	-0.0
0.304	-0.0	-0.0	-0.0	3.5542030334472656	-5.743525505065918	-641.1768188476562	-0.0	-0.0	-0.0	-0.0	-0.0	-0.0	-0.0	-0.0	-0.0	-0.0	-0.0	-0.0
0.3045	-0.0	-0.0	-0.0	3.8360519409179688	-5.843520641326904	-645.2720336914062	-0.0	-0.0	-0.0	-0.0	-0.0	-0.0	-0.0	-0.0	-0.0	-0.0	-0.0	-0.0
0.305	-0.0	-0.0	-0.0	4.549736022949219	-5.629075527191162	-647.3787841796875	-0.0	-0.0	-0.0	-0.0	-0.0	-0.0	-0.0	-0.0	-0.0	-0.0	-0.0	-0.0
0.3055	-0.0	-0.0	-0.0	5.519504070281982	-5.985366344451904	-651.6253051757812	-0.0	-0.0	-0.0	-0.0	-0.0	-0.0	-0.0	-0.0	-0.0	-0.0	-0.0	-0.0
0.306	-0.0	-0.0	-0.0	6.42315673828125	-5.996950626373291	-653.6895751953125	-0.0	-0.0	-0.0	-0.0	-0.0	-0.0	-0.0	-0.0	-0.0	-0.0	-0.0	-0.0
0.3065	-0.0	-0.0	-0.0	7.007874488830566	-6.837744235992432	-654.6953735351562	-0.0	-0.0	-0.0	-0.0	-0.0	-0.0	-0.0	-0.0	-0.0	-0.0	-0.0	-0.0
0.307	-0.0	-0.0	-0.0	7.544445514678955	-7.475401878356934	-656.4639282226562	-0.0	-0.0	-0.0	-0.0	-0.0	-0.0	-0.0	-0.0	-0.0	-0.0	-0.0	-0.0
0.3075	-0.0	-0.0	-0.0	7.391546249389648	-6.8755316734313965	-655.955810546875	-0.0	-0.0	-0.0	-0.0	-0.0	-0.0	-0.0	-0.0	-0.0	-0.0	-0.0	-0.0
0.308	-0.0	-0.0	-0.0	6.94558572769165	-6.875863075256348	-657.4685668945312	-0.0	-0.0	-0.0	-0.0	-0.0	-0.0	-0.0	-0.0	-0.0	-0.0	-0.0	-0.0
0.3085	-0.0	-0.0	-0.0	6.728882789611816	-6.136988162994385	-655.9544067382812	-0.0	-0.0	-0.0	-0.0	-0.0	-0.0	-0.0	-0.0	-0.0	-0.0	-0.0	-0.0
0.309	-0.0	-0.0	-0.0	5.862267971038818	-4.902172088623047	-653.5331420898438	-0.0	-0.0	-0.0	-0.0	-0.0	-0.0	-0.0	-0.0	-0.0	-0.0	-0.0	-0.0
0.3095	-0.0	-0.0	-0.0	4.499826908111572	-4.736003875732422	-651.4673461914062	-0.0	-0.0	-0.0	-0.0	-0.0	-0.0	-0.0	-0.0	-0.0	-0.0	-0.0	-0.0
0.31	-0.0	-0.0	-0.0	3.057084560394287	-4.088045597076416	-648.6968383789062	-0.0	-0.0	-0.0	-0.0	-0.0	-0.0	-0.0	-0.0	-0.0	-0.0	-0.0	-0.0
0.3105	-0.0	-0.0	-0.0	1.047096848487854	-3.895928859710693	-646.8211059570312	-0.0	-0.0	-0.0	-0.0	-0.0	-0.0	-0.0	-0.0	-0.0	-0.0	-0.0	-0.0
0.311	-0.0	-0.0	-0.0	-0.1496919393539428	-3.959126949310303	-645.1572875976562	-0.0	-0.0	-0.0	-0.0	-0.0	-0.0	-0.0	-0.0	-0.0	-0.0	-0.0	-0.0
0.3115	-0.0	-0.0	-0.0	-2.17838191986084	-4.111377239227295	-642.138671875	-0.0	-0.0	-0.0	-0.0	-0.0	-0.0	-0.0	-0.0	-0.0	-0.0	-0.0	-0.0
0.312	-0.0	-0.0	-0.0	-3.2598822116851807	-4.203998565673828	-642.728515625	-0.0	-0.0	-0.0	-0.0	-0.0	-0.0	-0.0	-0.0	-0.0	-0.0	-0.0	-0.0
0.3125	-0.0	-0.0	-0.0	-4.356243133544922	-4.178140163421631	-644.346923828125	-0.0	-0.0	-0.0	-0.0	-0.0	-0.0	-0.0	-0.0	-0.0	-0.0	-0.0	-0.0
0.313	-0.0	-0.0	-0.0	-4.2928996086120605	-4.660895824432373	-641.6424560546875	-0.0	-0.0	-0.0	-0.0	-0.0	-0.0	-0.0	-0.0	-0.0	-0.0	-0.0	-0.0
0.3135	-0.0	-0.0	-0.0	-4.471090316772461	-4.902172088623047	-644.8864135742188	-0.0	-0.0	-0.0	-0.0	-0.0	-0.0	-0.0	-0.0	-0.0	-0.0	-0.0	-0.0
0.314	-0.0	-0.0	-0.0	-4.014472961425781	-5.179977416992188	-645.2811279296875	-0.0	-0.0	-0.0	-0.0	-0.0	-0.0	-0.0	-0.0	-0.0	-0.0	-0.0	-0.0
0.3145	-0.0	-0.0	-0.0	-3.898916959762573	-5.489597797393799	-647.6917114257812	-0.0	-0.0	-0.0	-0.0	-0.0	-0.0	-0.0	-0.0	-0.0	-0.0	-0.0	-0.0
0.315	-0.0	-0.0	-0.0	-3.5056166648864746	-6.024503231048584	-647.9411010742188	-0.0	-0.0	-0.0	-0.0	-0.0	-0.0	-0.0	-0.0	-0.0	-0.0	-0.0	-0.0
0.3155	-0.0	-0.0	-0.0	-3.6477863788604736	-5.909038066864014	-647.2740478515625	-0.0	-0.0	-0.0	-0.0	-0.0	-0.0	-0.0	-0.0	-0.0	-0.0	-0.0	-0.0
0.316	-0.0	-0.0	-0.0	-3.7468414306640634	-5.935635566711426	-645.7179565429688	-0.0	-0.0	-0.0	-0.0	-0.0	-0.0	-0.0	-0.0	-0.0	-0.0	-0.0	-0.0
0.3165	-0.0	-0.0	-0.0	-3.5323803424835205	-5.874937534332275	-646.146240234375	-0.0	-0.0	-0.0	-0.0	-0.0	-0.0	-0.0	-0.0	-0.0	-0.0	-0.0	-0.0
0.317	-0.0	-0.0	-0.0	-3.479209899902344	-5.490212917327881	-645.4707641601562	-0.0	-0.0	-0.0	-0.0	-0.0	-0.0	-0.0	-0.0	-0.0	-0.0	-0.0	-0.0
0.3175	-0.0	-0.0	-0.0	-3.354248285293579	-4.688192367553711	-644.2001953125	-0.0	-0.0	-0.0	-0.0	-0.0	-0.0	-0.0	-0.0	-0.0	-0.0	-0.0	-0.0
0.318	-0.0	-0.0	-0.0	-3.318683862686157	-4.661533355712891	-641.0924682617188	-0.0	-0.0	-0.0	-0.0	-0.0	-0.0	-0.0	-0.0	-0.0	-0.0	-0.0	-0.0
0.3185	-0.0	-0.0	-0.0	-3.434123516082764	-4.7325358390808105	-637.9834594726562	-0.0	-0.0	-0.0	-0.0	-0.0	-0.0	-0.0	-0.0	-0.0	-0.0	-0.0	-0.0
